# xmcd
#
# Track frame offsets:
#	150
#	15017
#	26665
#	41002
#	50227
#	58962
#	69765
#	80820
#	92260
#	103320
#	115952
#	131020
#	143632
#	155875
#	166909
#	179857
#	189932
#
# Disc length: 2672 seconds
#
# Revision: 1
# Processed by: cddbd v1.5.2PL0 Copyright (c) Steve Scherf et al.
# Submitted via: EZCDAudioConverter 4.0.5.1
#
DISCID=ed0a6e11
DTITLE=Big Joe Williams - The Sonet Blues Story
DYEAR=1972
DGENRE=Blues
TTITLE0=I Been Wrong But I'll Be Right
TTITLE1=Black Gal You're Sure Looking Warm
TTITLE2=When I First Left Home
TTITLE3=Little Annie Mae
TTITLE4=Levee Break Blues
TTITLE5=Hang It Up on the Wall
TTITLE6=Lone Wolf
TTITLE7=This Heavy Stuff of Mine
TTITLE8=Tell My Mother
TTITLE9=Big Fat Mama
TTITLE10=Back on My Feet
TTITLE11=Jefferson and Franklin Blues
TTITLE12=Mary Lou
TTITLE13=They Stopped Me at the Border
TTITLE14=Canary Bird
TTITLE15=Do the Mess Around
TTITLE16=On My Way Back
EXTD=
EXTT0=
EXTT1=
EXTT2=
EXTT3=
EXTT4=
EXTT5=
EXTT6=
EXTT7=
EXTT8=
EXTT9=
EXTT10=
EXTT11=
EXTT12=
EXTT13=
EXTT14=
EXTT15=
EXTT16=
PLAYORDER=
